<svg width="258" height="79" viewBox="0 0 258 79" fill="none" xmlns="http://www.w3.org/2000/svg">
<g filter="url(#filter0_d_254_674)">
<path fill-rule="evenodd" clip-rule="evenodd" d="M24.1683 47.6736C26.6734 49.1766 29.4321 50.2041 32.4445 50.7559C32.2861 50.7589 32.1272 50.7604 31.9679 50.7604C26.8977 50.7604 22.5842 49.6631 19.0274 47.4685C16.1782 45.6499 14.0332 43.5156 12.5922 41.0656L12.6707 49.8523C12.6707 52.5766 13.3139 54.9604 14.6004 57.0036C15.2343 58.0477 16.0153 58.9724 16.9432 59.7777L19.8314 56.4081C22.3287 58.754 24.8638 60.5703 27.4368 61.8567C28.9787 62.6277 30.6294 63.1677 32.3887 63.4766C34.3475 63.1875 36.1748 62.619 37.8706 61.7712C40.4435 60.4847 42.9786 58.6685 45.4759 56.3225L48.4479 59.7898C49.3391 59.0019 50.0921 58.1017 50.7069 57.0892C51.9934 55.046 52.6366 52.6622 52.6366 49.9379L52.7151 41.1512C51.2742 43.6012 49.1291 45.7355 46.2799 47.5541C42.8216 49.688 38.6479 50.7844 33.7587 50.8435C36.7756 50.2922 39.5382 49.264 42.0465 47.759C46.084 45.3048 49.2507 42.0985 51.5466 38.1401C53.9217 34.1817 55.1092 29.9462 55.1092 25.4337C55.1092 21.0002 54.2383 17.0419 52.4966 13.5585C50.9395 10.2958 49.0003 7.79714 46.6792 6.06244L49.2691 5.67745C50.7254 6.7874 51.9086 8.03936 52.8186 9.43334L53.6582 2.7165L63.3068 2.7165L63.3068 50.0514C63.3068 54.2892 62.2095 58.1486 60.015 61.6297C57.8204 65.1108 54.7177 67.8729 50.7069 69.9162C46.6961 71.9594 41.8907 72.981 36.2908 72.981C34.8585 72.981 33.4967 72.9105 32.2054 72.7696C31.1844 72.8535 30.1214 72.8954 29.0166 72.8954C23.4166 72.8954 18.6112 71.8738 14.6004 69.8306C10.5896 67.7873 7.48694 65.0252 5.29236 61.5441C3.09778 58.0631 2.00049 54.2036 2.00049 49.9658L2.00049 2.63092H11.6491L12.4887 9.34777C13.4297 7.90645 14.6626 6.61696 16.1875 5.4793L19.5356 5.97698C17.2144 7.71168 15.2753 10.2104 13.7181 13.473C11.9764 16.9564 11.1056 20.9148 11.1056 25.3482C11.1056 29.8608 12.2931 34.0963 14.6681 38.0547C16.964 42.0131 20.1307 45.2194 24.1683 47.6736ZM32.0949 6.07708H23.5211C21.2253 6.7896 19.2065 7.93753 17.4648 9.52089C15.8023 11.0251 14.4564 12.8855 13.4272 15.1022C12.4772 17.3189 12.0022 19.8127 12.0022 22.5836C12.0022 25.6712 12.7147 28.4816 14.1397 31.015C15.6439 33.4692 17.6627 35.4088 20.1961 36.8338C22.1352 37.9246 24.2367 38.5979 26.5005 38.8538C24.8211 37.5622 23.4304 35.9597 22.3287 34.0461C20.8908 31.5488 20.1719 28.7866 20.1719 25.7596C20.1719 22.5813 20.8908 19.7813 22.3287 17.3597C23.7665 14.8624 25.6962 12.9327 28.1178 11.5705C29.6042 10.7597 31.1845 10.1903 32.8586 9.86207C34.3813 10.1997 35.8249 10.7406 37.1895 11.4849C39.6111 12.8471 41.5408 14.7768 42.9787 17.2741C44.4165 19.6957 45.1354 22.4957 45.1354 25.674C45.1354 28.7011 44.4165 31.4632 42.9787 33.9605C41.8521 35.9171 40.4236 37.5485 38.6932 38.8548C41.3492 38.7035 43.7911 38.0014 46.0187 36.7484C48.552 35.3234 50.5708 33.3838 52.075 30.9295C53.5 28.3962 54.2125 25.5857 54.2125 22.4982C54.2125 19.7273 53.7375 17.2335 52.7875 15.0168C51.7583 12.8001 50.4125 10.9396 48.75 9.43544C47.0083 7.85208 44.9895 6.70414 42.6936 5.99163H32.3622C32.2725 6.01945 32.1834 6.04794 32.0949 6.07708Z" fill="#790073"/>
</g>
<g filter="url(#filter1_d_254_674)">
<path d="M123.379 56.5654C122.695 57.1585 121.737 57.7516 120.505 58.3447C119.273 58.9378 117.881 59.4624 116.33 59.9187C114.825 60.3749 113.273 60.7399 111.677 61.0136C110.08 61.333 108.574 61.4927 107.16 61.4927C103.145 61.4927 99.5409 60.8768 96.3473 59.6449C93.1536 58.4131 90.4163 56.7022 88.1351 54.5123C85.8539 52.3224 84.0975 49.7675 82.8656 46.8477C81.6794 43.8822 81.0863 40.6657 81.0863 37.1984C81.0863 32.9554 81.7707 29.1915 83.1394 25.9067C84.5081 22.6218 86.3558 19.8616 88.6826 17.6261C91.055 15.3449 93.7695 13.634 96.8263 12.4935C99.9287 11.3073 103.168 10.7142 106.544 10.7142C109.51 10.7142 112.247 11.0563 114.756 11.7407C117.311 12.425 119.501 13.3147 121.326 14.4096L118.931 21.1162C118.018 20.6144 116.878 20.1353 115.509 19.6791C114.186 19.1773 112.817 18.7895 111.403 18.5157C109.989 18.242 108.688 18.1051 107.502 18.1051C104.582 18.1051 101.959 18.5385 99.6321 19.4054C97.351 20.2266 95.3892 21.4356 93.7467 23.0324C92.1043 24.6292 90.8269 26.5682 89.9144 28.8493C89.0476 31.1305 88.6141 33.7082 88.6141 36.5825C88.6141 39.183 89.0704 41.5782 89.9828 43.7681C90.8953 45.9124 92.1727 47.7829 93.8152 49.3797C95.4576 50.9309 97.4194 52.1399 99.7005 53.0068C101.982 53.828 104.514 54.2386 107.297 54.2386C108.894 54.2386 110.468 54.0789 112.019 53.7596C113.57 53.4402 114.893 52.984 115.988 52.3909V43.3575H106.407V36.3087H123.379V56.5654ZM136.375 32.2711L137.059 40.4832L136.717 39.3883C137.493 37.6546 138.588 36.1719 140.002 34.94C141.416 33.7082 142.876 32.7729 144.382 32.1342C145.933 31.4499 147.233 31.1077 148.283 31.1077L147.941 38.088C145.751 37.9512 143.834 38.3618 142.192 39.3198C140.595 40.2779 139.341 41.5554 138.428 43.1522C137.516 44.749 137.059 46.4599 137.059 48.2848V60.9452H130.079V32.2711H136.375ZM164.449 61.6295C161.119 61.6295 158.267 60.9908 155.895 59.7134C153.523 58.3903 151.698 56.5882 150.42 54.307C149.143 51.9803 148.504 49.3341 148.504 46.3686C148.504 43.54 149.211 40.9851 150.626 38.7039C152.085 36.3772 154.024 34.5294 156.442 33.1607C158.906 31.792 161.621 31.1077 164.586 31.1077C168.419 31.1077 171.589 32.2255 174.099 34.461C176.654 36.6965 178.364 39.8217 179.231 43.8365L155.895 51.9118L154.253 47.8057L172.935 41.0991L171.498 41.9888C170.951 40.5745 170.084 39.3427 168.898 38.2933C167.711 37.1984 166.092 36.6509 164.039 36.6509C162.396 36.6509 160.914 37.0615 159.59 37.8827C158.313 38.6583 157.287 39.7533 156.511 41.1676C155.781 42.5363 155.416 44.1559 155.416 46.0264C155.416 47.9426 155.804 49.6307 156.579 51.0906C157.401 52.5049 158.496 53.6227 159.864 54.4439C161.279 55.2651 162.853 55.6757 164.586 55.6757C165.818 55.6757 166.981 55.4476 168.076 54.9914C169.217 54.5351 170.289 53.9649 171.293 53.2805L174.509 58.4815C173.004 59.4396 171.361 60.2152 169.582 60.8083C167.848 61.3558 166.137 61.6295 164.449 61.6295ZM194.926 61.6295C192.235 61.6295 189.794 61.0821 187.604 59.9871C185.414 58.8465 183.68 57.1585 182.403 54.9229C181.125 52.6874 180.487 49.9272 180.487 46.6424C180.487 43.4031 181.148 40.6201 182.471 38.2933C183.84 35.9665 185.619 34.1872 187.809 32.9554C190.045 31.678 192.463 31.0393 195.063 31.0393C197.801 31.0393 200.036 31.6324 201.77 32.8186C203.549 33.9591 204.941 35.305 205.944 36.8562L205.465 37.9512L206.15 32.2711H212.651V60.9452H205.602V53.7596L206.355 55.4704C206.172 55.8354 205.785 56.3601 205.191 57.0444C204.598 57.6831 203.8 58.3675 202.796 59.0975C201.838 59.8274 200.698 60.4433 199.375 60.9452C198.097 61.4014 196.614 61.6295 194.926 61.6295ZM196.842 55.881C198.348 55.881 199.694 55.6073 200.88 55.0598C202.066 54.5123 203.07 53.7367 203.891 52.733C204.712 51.7293 205.283 50.5431 205.602 49.1744V43.2206C205.237 41.9432 204.621 40.8482 203.754 39.9358C202.887 38.9777 201.838 38.2249 200.606 37.6774C199.42 37.1299 198.097 36.8562 196.637 36.8562C194.995 36.8562 193.489 37.2668 192.12 38.088C190.752 38.8636 189.657 39.9586 188.836 41.3729C188.014 42.7872 187.604 44.4296 187.604 46.3002C187.604 48.0795 188.014 49.6991 188.836 51.159C189.702 52.619 190.843 53.7824 192.257 54.6492C193.672 55.4704 195.2 55.881 196.842 55.881ZM231.046 61.6295C228.354 61.6295 225.936 61.0136 223.792 59.7818C221.647 58.5044 219.959 56.7022 218.728 54.3755C217.496 52.0487 216.88 49.3341 216.88 46.2317C216.88 43.0381 217.541 40.3236 218.864 38.088C220.188 35.8069 221.967 34.0732 224.202 32.887C226.484 31.6552 229.038 31.0393 231.867 31.0393C234.057 31.0393 236.133 31.4955 238.095 32.4079C240.102 33.2748 241.653 34.5066 242.748 36.1034L242.543 38.4986V7.77148H249.523V60.9452H242.474V54.1702L243.227 56.0179C241.813 57.6147 240.079 58.9606 238.026 60.0555C235.973 61.1049 233.646 61.6295 231.046 61.6295ZM233.236 55.6757C234.833 55.6757 236.247 55.402 237.479 54.8545C238.711 54.307 239.76 53.5314 240.627 52.5277C241.494 51.4784 242.109 50.2694 242.474 48.9007V43.1522C242.155 41.8747 241.539 40.757 240.627 39.7989C239.76 38.7952 238.688 38.0196 237.41 37.4721C236.133 36.9246 234.741 36.6509 233.236 36.6509C231.548 36.6509 229.997 37.0615 228.582 37.8827C227.214 38.6583 226.096 39.7533 225.229 41.1676C224.408 42.5819 223.997 44.2243 223.997 46.0949C223.997 47.8742 224.408 49.4938 225.229 50.9537C226.096 52.4137 227.236 53.5771 228.651 54.4439C230.065 55.2651 231.593 55.6757 233.236 55.6757Z" fill="#790073"/>
</g>
<defs>
<filter id="filter0_d_254_674" x="0.254136" y="0.884568" width="68.2916" height="77.3355" filterUnits="userSpaceOnUse" color-interpolation-filters="sRGB">
<feFlood flood-opacity="0" result="BackgroundImageFix"/>
<feColorMatrix in="SourceAlpha" type="matrix" values="0 0 0 0 0 0 0 0 0 0 0 0 0 0 0 0 0 0 127 0" result="hardAlpha"/>
<feOffset dx="1.74635" dy="1.74635"/>
<feGaussianBlur stdDeviation="1.74635"/>
<feComposite in2="hardAlpha" operator="out"/>
<feColorMatrix type="matrix" values="0 0 0 0 0 0 0 0 0 0 0 0 0 0 0 0 0 0 0.25 0"/>
<feBlend mode="normal" in2="BackgroundImageFix" result="effect1_dropShadow_254_674"/>
<feBlend mode="normal" in="SourceGraphic" in2="effect1_dropShadow_254_674" result="shape"/>
</filter>
<filter id="filter1_d_254_674" x="79.6607" y="6.34576" width="174.14" height="59.5609" filterUnits="userSpaceOnUse" color-interpolation-filters="sRGB">
<feFlood flood-opacity="0" result="BackgroundImageFix"/>
<feColorMatrix in="SourceAlpha" type="matrix" values="0 0 0 0 0 0 0 0 0 0 0 0 0 0 0 0 0 0 127 0" result="hardAlpha"/>
<feOffset dx="1.42572" dy="1.42572"/>
<feGaussianBlur stdDeviation="1.42572"/>
<feComposite in2="hardAlpha" operator="out"/>
<feColorMatrix type="matrix" values="0 0 0 0 0 0 0 0 0 0 0 0 0 0 0 0 0 0 0.25 0"/>
<feBlend mode="normal" in2="BackgroundImageFix" result="effect1_dropShadow_254_674"/>
<feBlend mode="normal" in="SourceGraphic" in2="effect1_dropShadow_254_674" result="shape"/>
</filter>
</defs>
</svg>
