<svg width="24" height="24" viewBox="0 0 24 24" fill="none" xmlns="http://www.w3.org/2000/svg">
<path d="M8.45999 8.29002C8.27169 8.09641 8.01419 7.98554 7.74413 7.98179C7.47408 7.97804 7.2136 8.08172 7.01999 8.27002C6.82638 8.45833 6.71551 8.71583 6.71176 8.98588C6.70801 9.25593 6.81169 9.51641 6.99999 9.71002L9.33999 12L6.99999 14.29C6.90626 14.383 6.83187 14.4936 6.7811 14.6154C6.73033 14.7373 6.70419 14.868 6.70419 15C6.70419 15.132 6.73033 15.2627 6.7811 15.3846C6.83187 15.5065 6.90626 15.6171 6.99999 15.71C7.09295 15.8037 7.20356 15.8781 7.32541 15.9289C7.44727 15.9797 7.57798 16.0058 7.70999 16.0058C7.842 16.0058 7.97271 15.9797 8.09457 15.9289C8.21643 15.8781 8.32703 15.8037 8.41999 15.71L11.42 12.71C11.5137 12.6171 11.5881 12.5065 11.6389 12.3846C11.6897 12.2627 11.7158 12.132 11.7158 12C11.7158 11.868 11.6897 11.7373 11.6389 11.6154C11.5881 11.4936 11.5137 11.383 11.42 11.29L8.45999 8.29002ZM16.96 11.29L13.96 8.29002C13.7717 8.10172 13.5163 7.99593 13.25 7.99593C12.9837 7.99593 12.7283 8.10172 12.54 8.29002C12.3517 8.47833 12.2459 8.73372 12.2459 9.00002C12.2459 9.26632 12.3517 9.52172 12.54 9.71002L14.84 12L12.54 14.29C12.4463 14.383 12.3719 14.4936 12.3211 14.6154C12.2703 14.7373 12.2442 14.868 12.2442 15C12.2442 15.132 12.2703 15.2627 12.3211 15.3846C12.3719 15.5065 12.4463 15.6171 12.54 15.71C12.633 15.8037 12.7436 15.8781 12.8654 15.9289C12.9873 15.9797 13.118 16.0058 13.25 16.0058C13.382 16.0058 13.5127 15.9797 13.6346 15.9289C13.7564 15.8781 13.867 15.8037 13.96 15.71L16.96 12.71C17.0564 12.6197 17.1339 12.5112 17.1882 12.3908C17.2424 12.2704 17.2722 12.1404 17.276 12.0084C17.2797 11.8763 17.2572 11.7449 17.2098 11.6216C17.1625 11.4983 17.0911 11.3856 17 11.29H16.96Z" fill="#4A4A4A"/>
</svg>
