<svg width="32" height="32" viewBox="0 0 32 32" fill="none" xmlns="http://www.w3.org/2000/svg">
<path d="M25.8018 12.7327L16.6143 4.69364C16.1194 4.26065 15.3806 4.26065 14.8857 4.69364L5.69821 12.7327C5.41338 12.9819 5.25 13.342 5.25 13.7205V24.9374C5.25 25.6623 5.83763 26.2499 6.5625 26.2499H11.8125C12.5374 26.2499 13.125 25.6623 13.125 24.9374V19.6874C13.125 18.9625 13.7126 18.3749 14.4375 18.3749H17.0625C17.7874 18.3749 18.375 18.9625 18.375 19.6874V24.9374C18.375 25.6623 18.9626 26.2499 19.6875 26.2499H24.9375C25.6624 26.2499 26.25 25.6623 26.25 24.9374V13.7205C26.25 13.342 26.0866 12.9819 25.8018 12.7327Z" stroke="#4A4A4A" stroke-width="1.75" stroke-linecap="round" stroke-linejoin="round"/>
</svg>
