<svg width="18" height="18" viewBox="0 0 18 18" fill="none" xmlns="http://www.w3.org/2000/svg">
<path d="M14.7439 7.2759L9.49388 2.68215C9.21111 2.43473 8.78889 2.43473 8.50612 2.68215L3.25612 7.2759C3.09336 7.41832 3 7.62406 3 7.84033V14.25C3 14.6642 3.33579 15 3.75 15H6.75C7.16421 15 7.5 14.6642 7.5 14.25V11.25C7.5 10.8358 7.83579 10.5 8.25 10.5H9.75C10.1642 10.5 10.5 10.8358 10.5 11.25V14.25C10.5 14.6642 10.8358 15 11.25 15H14.25C14.6642 15 15 14.6642 15 14.25V7.84033C15 7.62406 14.9066 7.41832 14.7439 7.2759Z" stroke="#4A4A4A" stroke-opacity="0.8" stroke-width="1.66667" stroke-linecap="round" stroke-linejoin="round"/>
</svg>
