<svg width="30" height="30" viewBox="0 0 30 30" fill="none" xmlns="http://www.w3.org/2000/svg">
<path d="M14.2929 18.0429C13.9024 18.4334 13.9024 19.0666 14.2929 19.4571C14.6834 19.8476 15.3166 19.8476 15.7071 19.4571L14.2929 18.0429ZM18.75 15L19.4571 15.7071C19.6446 15.5196 19.75 15.2652 19.75 15C19.75 14.7348 19.6446 14.4804 19.4571 14.2929L18.75 15ZM15.7071 10.5429C15.3166 10.1524 14.6834 10.1524 14.2929 10.5429C13.9024 10.9334 13.9024 11.5666 14.2929 11.9571L15.7071 10.5429ZM5 14C4.44772 14 4 14.4477 4 15C4 15.5523 4.44772 16 5 16L5 14ZM15.7071 19.4571L19.4571 15.7071L18.0429 14.2929L14.2929 18.0429L15.7071 19.4571ZM19.4571 14.2929L15.7071 10.5429L14.2929 11.9571L18.0429 15.7071L19.4571 14.2929ZM5 16L18.75 16V14L5 14L5 16Z" fill="#4A4A4A"/>
<path d="M11.25 8.75V6.25C11.25 5.55964 11.8096 5 12.5 5H23.75C24.4404 5 25 5.55964 25 6.25V23.75C25 24.4404 24.4404 25 23.75 25H12.5C11.8096 25 11.25 24.4404 11.25 23.75V21.25" stroke="#4A4A4A" stroke-width="2" stroke-linecap="round" stroke-linejoin="round"/>
</svg>
