<svg width="25" height="25" viewBox="0 0 25 25" fill="none" xmlns="http://www.w3.org/2000/svg">
<path d="M12.419 2.35309C9.96158 2.35319 7.58436 3.22771 5.71272 4.82017C3.84108 6.41263 2.59714 8.61911 2.20349 11.0448C1.80985 13.4705 2.29217 15.9571 3.56417 18.0598C4.83616 20.1624 6.81483 21.7438 9.14611 22.521C9.66357 22.6116 9.85762 22.3011 9.85762 22.0294C9.85762 21.7836 9.84467 20.9686 9.84467 20.1019C7.24443 20.5805 6.57174 19.468 6.36475 18.8859C6.13508 18.3197 5.771 17.818 5.30397 17.4241C4.94174 17.23 4.42429 16.7514 5.29102 16.7384C5.62197 16.7744 5.93939 16.8895 6.21638 17.0742C6.49337 17.2588 6.72176 17.5075 6.88221 17.7992C7.02376 18.0535 7.21409 18.2773 7.4423 18.4579C7.67051 18.6385 7.93211 18.7723 8.21211 18.8516C8.49212 18.9309 8.78502 18.9542 9.07404 18.9201C9.36306 18.8861 9.64251 18.7953 9.89639 18.653C9.94119 18.1269 10.1757 17.635 10.5562 17.2688C8.25348 17.0101 5.8473 16.1175 5.8473 12.159C5.83275 11.1304 6.2123 10.1353 6.90809 9.37761C6.59169 8.48367 6.62871 7.50264 7.01158 6.63509C7.01158 6.63509 7.87829 6.36341 9.8576 7.69587C11.551 7.23013 13.3388 7.23013 15.0322 7.69587C17.0114 6.35048 17.8782 6.63509 17.8782 6.63509C18.2611 7.50263 18.2981 8.48368 17.9817 9.37761C18.6796 10.134 19.0594 11.13 19.0425 12.159C19.0425 16.1304 16.6233 17.0101 14.3207 17.2688C14.5677 17.5192 14.7579 17.8197 14.8784 18.1501C14.9989 18.4804 15.047 18.8329 15.0192 19.1834C15.0192 20.5677 15.0063 21.6802 15.0063 22.0295C15.0063 22.3011 15.2003 22.6245 15.7178 22.521C18.045 21.7375 20.018 20.1524 21.2845 18.0487C22.5511 15.945 23.0289 13.4596 22.6325 11.0363C22.2361 8.61293 20.9914 6.40931 19.1206 4.81879C17.2498 3.22827 14.8746 2.35437 12.419 2.35309V2.35309Z" fill="white"/>
</svg>
