<svg width="25" height="25" viewBox="0 0 25 25" fill="none" xmlns="http://www.w3.org/2000/svg">
<path d="M12.419 9.90827C11.9114 9.90827 11.4151 10.0588 10.9931 10.3408C10.571 10.6228 10.242 11.0237 10.0478 11.4927C9.8535 11.9617 9.80268 12.4777 9.90171 12.9756C10.0007 13.4735 10.2452 13.9308 10.6041 14.2897C10.9631 14.6487 11.4204 14.8931 11.9183 14.9921C12.4161 15.0912 12.9322 15.0403 13.4012 14.8461C13.8702 14.6518 14.271 14.3229 14.553 13.9008C14.8351 13.4787 14.9856 12.9825 14.9856 12.4749C14.9856 12.1378 14.9192 11.8041 14.7902 11.4927C14.6612 11.1813 14.4722 10.8983 14.2338 10.66C13.9955 10.4217 13.7126 10.2326 13.4012 10.1036C13.0898 9.97466 12.756 9.90827 12.419 9.90827V9.90827ZM22.6957 7.37273C22.6903 6.57352 22.5431 5.78162 22.261 5.03382C22.0533 4.48661 21.7319 3.98968 21.318 3.57581C20.9042 3.16194 20.4072 2.84054 19.86 2.63281C19.1122 2.35076 18.3203 2.20359 17.5211 2.19815C16.1861 2.1257 15.7928 2.1257 12.419 2.1257C9.04516 2.1257 8.65189 2.1257 7.31685 2.19815C6.51764 2.20359 5.72574 2.35076 4.97794 2.63281C4.43074 2.84054 3.93381 3.16194 3.51993 3.57581C3.10606 3.98968 2.78466 4.48661 2.57693 5.03382C2.29488 5.78162 2.14771 6.57352 2.14227 7.37273C2.06982 8.70777 2.06982 9.10104 2.06982 12.4749C2.06982 15.8487 2.06982 16.242 2.14227 17.577C2.15341 18.379 2.30038 19.1734 2.57693 19.9263C2.78374 20.471 3.10487 20.965 3.51871 21.3751C3.9308 21.7915 4.4288 22.1129 4.97794 22.3169C5.72574 22.599 6.51764 22.7461 7.31685 22.7516C8.65189 22.824 9.04516 22.824 12.419 22.824C15.7928 22.824 16.1861 22.824 17.5211 22.7516C18.3203 22.7461 19.1122 22.599 19.86 22.3169C20.4092 22.1129 20.9072 21.7915 21.3193 21.3751C21.7331 20.965 22.0542 20.471 22.261 19.9263C22.5428 19.1748 22.69 18.3795 22.6957 17.577C22.7681 16.242 22.7681 15.8487 22.7681 12.4749C22.7681 9.10104 22.7681 8.70777 22.6957 7.37273V7.37273ZM20.067 15.6521C20.0338 16.2907 19.8975 16.9198 19.6634 17.5149C19.4625 18.0113 19.1638 18.4623 18.7851 18.841C18.4064 19.2197 17.9555 19.5184 17.459 19.7193C16.8583 19.9403 16.2257 20.0627 15.5858 20.0815C14.7682 20.0815 14.5509 20.0815 12.419 20.0815C10.2871 20.0815 10.0697 20.0815 9.25214 20.0815C8.61228 20.0627 7.9797 19.9403 7.37894 19.7193C6.86573 19.5286 6.40227 19.2243 6.0232 18.8292C5.64822 18.458 5.35863 18.0095 5.17457 17.5149C4.95264 16.9148 4.83368 16.2815 4.8227 15.6417C4.8227 14.8241 4.8227 14.6068 4.8227 12.4749C4.8227 10.3429 4.8227 10.1256 4.8227 9.30802C4.83368 8.66826 4.95264 8.03495 5.17457 7.43482C5.36529 6.92161 5.66955 6.45815 6.0646 6.07908C6.43752 5.70612 6.88556 5.41683 7.37894 5.23045C7.9797 5.0094 8.61228 4.88708 9.25214 4.86823V4.86823C10.0697 4.86823 10.2871 4.86823 12.419 4.86823C14.5509 4.86823 14.7682 4.86823 15.5858 4.86823C16.2257 4.88708 16.8583 5.0094 17.459 5.23045C17.9722 5.42117 18.4357 5.72542 18.8148 6.12048C19.1898 6.49175 19.4793 6.94027 19.6634 7.43482C19.8845 8.03558 20.0068 8.66816 20.0256 9.30802C20.0256 10.1256 20.0256 10.3429 20.0256 12.4749C20.0256 14.6068 20.0981 14.8241 20.067 15.6417V15.6521ZM18.4112 7.95228C18.2879 7.61799 18.0937 7.3144 17.8417 7.06247C17.5898 6.81054 17.2862 6.61627 16.9519 6.49305C16.4929 6.33394 16.0095 6.25687 15.5237 6.26537C14.7165 6.26537 14.4888 6.26537 12.419 6.26537C10.3492 6.26537 10.1215 6.26537 9.31424 6.26537C8.82603 6.27014 8.34252 6.36123 7.88605 6.53444C7.55688 6.65207 7.25651 6.83841 7.00491 7.08109C6.75331 7.32376 6.55625 7.61721 6.42682 7.94193C6.27653 8.40285 6.2031 8.88536 6.20949 9.37012C6.20949 10.1773 6.20949 10.405 6.20949 12.4749C6.20949 14.5447 6.20949 14.7724 6.20949 15.5796C6.21975 16.0673 6.31067 16.5498 6.47857 17.0078C6.60179 17.3421 6.79606 17.6457 7.04799 17.8976C7.29992 18.1495 7.6035 18.3438 7.9378 18.467C8.37936 18.6294 8.84403 18.7203 9.31424 18.7361V18.7361C10.1215 18.7361 10.3492 18.7361 12.419 18.7361C14.4888 18.7361 14.7165 18.7361 15.5237 18.7361C16.0119 18.7313 16.4954 18.6402 16.9519 18.467C17.2862 18.3438 17.5898 18.1495 17.8417 17.8976C18.0937 17.6457 18.2879 17.3421 18.4112 17.0078C18.5844 16.5513 18.6755 16.0678 18.6802 15.5796C18.6802 14.7724 18.6802 14.5447 18.6802 12.4749C18.6802 10.405 18.6802 10.1773 18.6802 9.37012C18.6805 8.88143 18.5893 8.39701 18.4112 7.94193V7.95228ZM12.419 16.4282C11.9003 16.4282 11.3867 16.3259 10.9077 16.1271C10.4286 15.9283 9.99346 15.6369 9.62718 15.2697C9.2609 14.9025 8.97067 14.4666 8.77313 13.987C8.57558 13.5074 8.47459 12.9935 8.47595 12.4749V12.4749C8.47596 11.6925 8.70808 10.9278 9.14295 10.2774C9.57781 9.62706 10.1959 9.12035 10.9188 8.82144C11.6418 8.52252 12.4373 8.44484 13.2044 8.59822C13.9716 8.7516 14.676 9.12916 15.2285 9.68308C15.7809 10.237 16.1566 10.9424 16.308 11.71C16.4594 12.4775 16.3796 13.2727 16.0788 13.9949C15.778 14.7171 15.2697 15.3339 14.6182 15.767C13.9667 16.2002 13.2013 16.4303 12.419 16.4282V16.4282ZM16.5587 9.29767C16.3299 9.27346 16.1182 9.16543 15.9643 8.99441C15.8104 8.82339 15.7253 8.60147 15.7253 8.37142C15.7253 8.14137 15.8104 7.91945 15.9643 7.74843C16.1182 7.57741 16.3299 7.46939 16.5587 7.44517V7.44517C16.7874 7.46939 16.9991 7.57741 17.153 7.74843C17.3069 7.91945 17.392 8.14137 17.392 8.37142C17.392 8.60147 17.3069 8.82339 17.153 8.99441C16.9991 9.16543 16.7874 9.27346 16.5587 9.29767Z" fill="white"/>
</svg>
