<svg width="25" height="25" viewBox="0 0 25 25" fill="none" xmlns="http://www.w3.org/2000/svg">
<path d="M21.1846 2.06982H3.65316C3.45609 2.06708 3.26041 2.10319 3.0773 2.17609C2.89419 2.24898 2.72723 2.35723 2.58595 2.49466C2.44468 2.63209 2.33187 2.796 2.25395 2.97703C2.17603 3.15807 2.13454 3.35268 2.13184 3.54975V21.2882C2.13454 21.4853 2.17603 21.6799 2.25395 21.8609C2.33187 22.042 2.44468 22.2059 2.58595 22.3433C2.72723 22.4807 2.89419 22.589 3.0773 22.6619C3.26041 22.7348 3.45609 22.7709 3.65316 22.7681H21.1846C21.3817 22.7709 21.5774 22.7348 21.7605 22.6619C21.9436 22.589 22.1106 22.4807 22.2519 22.3433C22.3931 22.2059 22.5059 22.042 22.5839 21.8609C22.6618 21.6799 22.7033 21.4853 22.706 21.2882V3.54975C22.7033 3.35268 22.6618 3.15807 22.5839 2.97703C22.5059 2.796 22.3931 2.63209 22.2519 2.49466C22.1106 2.35723 21.9436 2.24898 21.7605 2.17609C21.5774 2.10319 21.3817 2.06708 21.1846 2.06982V2.06982ZM8.37238 19.3943H5.26763V10.0801H8.37238V19.3943ZM6.82001 8.77607C6.39182 8.77607 5.98118 8.60598 5.6784 8.30321C5.37563 8.00043 5.20554 7.58979 5.20554 7.1616C5.20554 6.73342 5.37563 6.32277 5.6784 6.02C5.98118 5.71723 6.39182 5.54713 6.82001 5.54713C7.04737 5.52135 7.27762 5.54388 7.49568 5.61325C7.71373 5.68262 7.91468 5.79726 8.08535 5.94968C8.25603 6.10209 8.39259 6.28884 8.48609 6.49769C8.57959 6.70654 8.62792 6.93278 8.62792 7.1616C8.62792 7.39043 8.57959 7.61667 8.48609 7.82552C8.39259 8.03437 8.25603 8.22112 8.08535 8.37353C7.91468 8.52594 7.71373 8.64059 7.49568 8.70996C7.27762 8.77933 7.04737 8.80186 6.82001 8.77607V8.77607ZM19.5702 19.3943H16.4654V14.3957C16.4654 13.1434 16.0204 12.3258 14.8924 12.3258C14.5432 12.3284 14.2033 12.4379 13.9183 12.6396C13.6334 12.8413 13.4171 13.1255 13.2986 13.4539C13.2176 13.6971 13.1825 13.9533 13.1951 14.2094V19.384H10.0903C10.0903 19.384 10.0903 10.9183 10.0903 10.0697H13.1951V11.3841C13.4771 10.8947 13.8874 10.4915 14.3816 10.2179C14.8758 9.94437 15.4352 9.81084 15.9997 9.83169C18.0695 9.83169 19.5702 11.1667 19.5702 14.0334V19.3943Z" fill="white"/>
</svg>
