<svg width="852" height="602" viewBox="0 0 852 602" fill="none" xmlns="http://www.w3.org/2000/svg">
<g filter="url(#filter0_d_254_666)">
<path fill-rule="evenodd" clip-rule="evenodd" d="M797 539.745C798.098 538.252 799.143 536.718 800.134 535.142C806.69 524.716 810.578 512.943 811.97 500.063C858.914 424.06 745.319 267.183 557.784 149.245C550.449 144.632 543.11 140.147 535.775 135.792C549.423 143.492 563.112 151.646 576.784 160.245C764.697 278.42 878.372 435.693 830.684 511.522C822.985 523.763 811.552 533.134 797 539.745ZM419.219 80.4224C456.811 94.8814 496.124 113.421 535.775 135.792C477.388 101.122 419.256 74.6455 365.768 57.15C204.918 -12.6814 64.6078 -21.0296 22.4222 46.0501C-32.0786 132.712 97.8365 312.453 312.596 447.512C523.45 580.116 737.697 620.346 797 539.745C745.773 563.015 655.897 552.081 554.238 511.771C562.254 513.579 570.11 515.146 577.788 516.471C580.141 517.136 582.484 517.782 584.814 518.409C693.253 552.41 781.388 548.696 811.684 500.522C811.78 500.369 811.875 500.216 811.97 500.063C814.884 473.093 806.856 441.267 789.478 406.789C760.684 327.06 665.46 225.054 533.784 142.245C495.306 118.046 456.699 97.3636 419.219 80.4224ZM404.216 74.8348C439.06 91.7561 474.558 111.416 509.96 133.68C644.783 218.468 746.167 320.866 789.478 406.789C801.775 440.84 801.956 470.828 787.684 493.522C759.656 538.089 682.127 544.604 584.814 518.409C583.144 517.886 581.468 517.353 579.788 516.811C654.54 529.345 712.139 518.607 735.462 481.522C756.666 447.805 745.967 397.986 711.025 342.661C670.904 274.827 591.001 197.204 487.409 132.056C442.303 103.69 397.011 80.3959 353.764 62.5757C346.259 59.3363 338.806 56.2502 331.414 53.3195C354.504 58.5266 378.917 65.7246 404.216 74.8348ZM328.317 52.6312C329.347 52.8566 330.379 53.0861 331.414 53.3195C316.274 47.3159 301.394 41.9638 286.865 37.2794C301.945 39.8079 317.724 43.2835 334.06 47.681C351.198 53.0544 368.843 59.3698 386.847 66.6006C392.616 69.2688 398.407 72.0137 404.216 74.8348C409.184 76.6238 414.186 78.4865 419.219 80.4224C408.323 75.497 397.522 70.8879 386.847 66.6006C379.786 63.3351 372.757 60.1845 365.768 57.15C354.998 53.6274 344.417 50.4689 334.06 47.681C309.843 40.0878 286.638 34.3756 264.864 30.6196C164.268 2.19585 83.6676 7.93398 54.9685 53.5688C7.28064 129.398 120.956 286.67 308.869 404.846C394.66 458.799 481.093 495.275 554.238 511.771C542.52 507.125 530.645 502.088 518.655 496.668C538.94 504.47 558.723 511.084 577.788 516.471C578.456 516.586 579.123 516.7 579.788 516.811C535.635 502.576 488.248 482.175 440.119 456.058C575.405 515.445 693.806 522.922 729.221 466.608C748.349 436.192 740.217 392.018 711.025 342.661C667.382 273.562 585.92 195.874 481.562 130.245C438.538 103.188 395.354 80.5263 353.764 62.5757C345.196 59.045 336.708 55.7291 328.317 52.6312ZM246.885 43.2998C271.149 42.9604 298.609 46.1276 328.317 52.6312C309.909 45.8348 291.971 40.0877 274.687 35.4228C278.692 35.9709 282.752 36.5899 286.865 37.2794C279.436 34.8842 272.098 32.6636 264.864 30.6196C255.425 28.9913 246.255 27.7306 237.387 26.8437C162.316 12.7609 104.165 22.4001 81.1276 59.0315C35.7103 131.25 143.973 281.034 322.939 393.583C333.099 399.973 343.269 406.106 353.423 411.976C355.965 413.607 358.521 415.23 361.091 416.846C414.483 450.424 468.124 477.232 518.655 496.668C491.865 484.559 464.499 470.537 437.015 454.687C438.051 455.147 439.086 455.604 440.119 456.058C435.452 453.525 430.778 450.938 426.099 448.298C418.764 443.943 411.425 439.458 404.091 434.846C358.321 406.062 316.956 374.959 281.254 343.278C297.471 355.193 314.564 366.839 332.432 378.075C495.128 480.393 660.491 510.115 701.779 444.462C743.068 378.809 644.647 242.641 481.951 140.324C398.618 87.9169 314.586 54.5552 246.885 43.2998ZM174.113 40.662C200.328 31.541 234.791 29.9634 274.687 35.4228C261.869 31.9635 249.411 29.0993 237.387 26.8437C175.118 20.6155 127.788 32.8172 107.191 65.5688C60.155 140.361 170.099 294.384 353.423 411.976C381.593 428.262 409.638 442.532 437.015 454.687C433.378 452.59 429.739 450.46 426.099 448.298C412.451 440.598 398.763 432.444 385.091 423.846C325.83 386.577 273.952 345.421 232.19 304.156C247.455 317.394 263.85 330.492 281.254 343.278C170.376 244.889 114.118 140.928 150.191 83.5687C166.91 56.9831 201.244 43.9381 246.885 43.2998C219.604 38.7644 194.976 37.8183 174.113 40.662ZM174.113 40.662C155.116 47.2718 140.451 57.8431 131.191 72.5687C98.5419 124.484 141.528 214.574 232.19 304.156C132.161 217.408 80.7157 124.643 112.604 73.9374C124.223 55.4618 145.667 44.5392 174.113 40.662Z" fill="#790073" fill-opacity="0.85" shape-rendering="crispEdges"/>
</g>
<defs>
<filter id="filter0_d_254_666" x="0" y="0" width="851.553" height="601.192" filterUnits="userSpaceOnUse" color-interpolation-filters="sRGB">
<feFlood flood-opacity="0" result="BackgroundImageFix"/>
<feColorMatrix in="SourceAlpha" type="matrix" values="0 0 0 0 0 0 0 0 0 0 0 0 0 0 0 0 0 0 127 0" result="hardAlpha"/>
<feOffset dy="10"/>
<feGaussianBlur stdDeviation="5"/>
<feComposite in2="hardAlpha" operator="out"/>
<feColorMatrix type="matrix" values="0 0 0 0 0 0 0 0 0 0 0 0 0 0 0 0 0 0 0.7 0"/>
<feBlend mode="normal" in2="BackgroundImageFix" result="effect1_dropShadow_254_666"/>
<feBlend mode="normal" in="SourceGraphic" in2="effect1_dropShadow_254_666" result="shape"/>
</filter>
</defs>
</svg>
