<svg width="745" height="526" viewBox="0 0 745 526" fill="none" xmlns="http://www.w3.org/2000/svg">
<g filter="url(#filter0_d_254_666)">
<path fill-rule="evenodd" clip-rule="evenodd" d="M697.149 471.95C698.11 470.645 699.024 469.304 699.89 467.926C705.623 458.81 709.022 448.516 710.239 437.253C751.287 370.796 651.96 233.623 487.98 130.499C481.568 126.466 475.151 122.545 468.738 118.737C480.671 125.47 492.639 132.599 504.594 140.117C668.904 243.45 768.301 380.968 726.603 447.273C719.871 457.977 709.874 466.17 697.149 471.95ZM366.821 70.3214C399.691 82.9645 434.067 99.1754 468.738 118.737C417.684 88.4217 366.853 65.27 320.082 49.9718C179.435 -11.0886 56.7488 -18.3883 19.8619 40.266C-27.7933 116.043 85.8039 273.208 273.588 391.303C457.959 507.251 645.295 542.428 697.149 471.95C652.357 492.298 573.77 482.737 484.88 447.491C491.889 449.071 498.758 450.442 505.472 451.6C507.53 452.182 509.577 452.747 511.615 453.295C606.434 483.025 683.499 479.778 709.989 437.654C710.073 437.521 710.157 437.387 710.239 437.253C712.788 413.67 705.768 385.843 690.572 355.695C665.395 285.98 582.132 196.786 466.995 124.378C433.35 103.219 399.592 85.1347 366.821 70.3214ZM353.701 65.4355C384.169 80.2314 415.208 97.4219 446.163 116.889C564.052 191.028 652.702 280.564 690.572 355.695C701.325 385.469 701.483 411.691 689.004 431.534C664.497 470.503 596.705 476.2 511.615 453.295C510.155 452.837 508.69 452.371 507.22 451.898C572.583 462.857 622.948 453.468 643.341 421.041C661.88 391.561 652.528 348.003 621.98 299.632C586.9 240.316 517.031 172.438 426.445 115.47C387.002 90.6641 347.395 70.2947 309.578 54.7124C303.018 51.8811 296.503 49.1839 290.043 46.6223C310.233 51.1754 331.58 57.4695 353.701 65.4355ZM287.336 46.0207C288.236 46.2178 289.139 46.4183 290.043 46.6223C276.804 41.3728 263.794 36.693 251.089 32.5969C264.276 34.8079 278.073 37.847 292.357 41.6921C307.342 46.3906 322.771 51.9128 338.513 58.2354C343.558 60.5685 348.622 62.9687 353.701 65.4355C358.046 66.9998 362.42 68.6286 366.821 70.3214C357.293 66.0145 347.848 61.9843 338.513 58.2354C332.339 55.38 326.194 52.6251 320.082 49.9718C310.665 46.8917 301.413 44.1299 292.357 41.6921C271.181 35.0526 250.891 30.0579 231.852 26.7736C143.891 1.92005 73.4145 6.93748 48.3202 46.8403C6.62207 113.145 106.019 250.663 270.329 353.996C345.345 401.172 420.922 433.067 484.88 447.491C474.633 443.428 464.25 439.023 453.765 434.284C471.502 441.107 488.801 446.89 505.472 451.6C506.056 451.701 506.639 451.8 507.22 451.898C468.613 439.45 427.177 421.612 385.093 398.774C503.387 450.703 606.917 457.241 637.884 408.001C654.608 381.407 647.5 342.785 621.98 299.632C583.82 239.209 512.587 171.275 421.332 113.885C383.709 90.2252 345.946 70.4088 309.578 54.7124C302.089 51.6265 294.67 48.7284 287.336 46.0207ZM216.131 37.8611C237.348 37.5644 261.359 40.3339 287.336 46.0207C271.24 40.0779 255.555 35.0526 240.442 30.9736C243.944 31.4528 247.494 31.9941 251.089 32.5969C244.593 30.5026 238.177 28.5608 231.852 26.7736C223.599 25.3499 215.58 24.2476 207.827 23.472C142.185 11.158 91.3374 19.5865 71.194 51.6169C31.4812 114.765 126.146 245.735 282.633 344.148C291.516 349.734 300.408 355.096 309.286 360.229C311.509 361.655 313.745 363.075 315.992 364.489C362.678 393.848 409.581 417.29 453.765 434.284C430.34 423.696 406.411 411.435 382.379 397.576C383.285 397.978 384.189 398.377 385.093 398.774C381.012 396.56 376.925 394.298 372.834 391.99C366.421 388.182 360.004 384.26 353.591 380.228C313.57 355.059 277.4 327.862 246.182 300.16C260.363 310.579 275.309 320.762 290.933 330.588C433.194 420.054 577.787 446.043 613.889 388.636C649.992 331.229 563.933 212.165 421.672 122.699C348.806 76.8742 275.329 47.7028 216.131 37.8611ZM152.5 35.5547C175.422 27.5793 205.557 26.1998 240.442 30.9736C229.234 27.9488 218.341 25.4444 207.827 23.472C153.379 18.026 111.993 28.6951 93.9832 57.3331C52.8555 122.731 148.989 257.407 309.286 360.229C333.917 374.469 358.44 386.947 382.379 397.576C379.199 395.742 376.017 393.88 372.834 391.99C360.901 385.257 348.932 378.127 336.978 370.609C285.16 338.022 239.798 302.034 203.281 265.952C216.628 277.527 230.964 288.979 246.182 300.16C149.231 214.129 100.04 123.227 131.582 73.0721C146.201 49.8258 176.223 38.4193 216.131 37.8611C192.277 33.8954 170.742 33.0682 152.5 35.5547ZM152.5 35.5547C135.889 41.3343 123.066 50.5779 114.969 63.4538C86.4207 108.848 124.007 187.622 203.281 265.952C115.817 190.1 70.8338 108.987 98.7164 64.6505C108.876 48.4956 127.627 38.945 152.5 35.5547Z" fill="#790073" fill-opacity="0.85" shape-rendering="crispEdges"/>
</g>
<defs>
<filter id="filter0_d_254_666" x="0.256038" y="0" width="744.595" height="525.68" filterUnits="userSpaceOnUse" color-interpolation-filters="sRGB">
<feFlood flood-opacity="0" result="BackgroundImageFix"/>
<feColorMatrix in="SourceAlpha" type="matrix" values="0 0 0 0 0 0 0 0 0 0 0 0 0 0 0 0 0 0 127 0" result="hardAlpha"/>
<feOffset dy="8.74396"/>
<feGaussianBlur stdDeviation="4.37198"/>
<feComposite in2="hardAlpha" operator="out"/>
<feColorMatrix type="matrix" values="0 0 0 0 0 0 0 0 0 0 0 0 0 0 0 0 0 0 0.7 0"/>
<feBlend mode="normal" in2="BackgroundImageFix" result="effect1_dropShadow_254_666"/>
<feBlend mode="normal" in="SourceGraphic" in2="effect1_dropShadow_254_666" result="shape"/>
</filter>
</defs>
</svg>
